<svg id="visual" viewBox="0 0 960 540" width="960" height="540" xmlns="http://www.w3.org/2000/svg" xmlns:xlink="http://www.w3.org/1999/xlink" version="1.1"><path d="M0 71L14.5 65.7C29 60.3 58 49.7 87.2 51.5C116.3 53.3 145.7 67.7 174.8 69.5C204 71.3 233 60.7 262 58.8C291 57 320 64 349 67.5C378 71 407 71 436.2 72.8C465.3 74.7 494.7 78.3 523.8 73.8C553 69.3 582 56.7 611 51.3C640 46 669 48 698 49.8C727 51.7 756 53.3 785.2 53.3C814.3 53.3 843.7 51.7 872.8 51.7C902 51.7 931 53.3 945.5 54.2L960 55L960 0L945.5 0C931 0 902 0 872.8 0C843.7 0 814.3 0 785.2 0C756 0 727 0 698 0C669 0 640 0 611 0C582 0 553 0 523.8 0C494.7 0 465.3 0 436.2 0C407 0 378 0 349 0C320 0 291 0 262 0C233 0 204 0 174.8 0C145.7 0 116.3 0 87.2 0C58 0 29 0 14.5 0L0 0Z" fill="#a4b7d3"></path><path d="M0 114L14.5 110.5C29 107 58 100 87.2 112.7C116.3 125.3 145.7 157.7 174.8 167.5C204 177.3 233 164.7 262 153C291 141.3 320 130.7 349 128.8C378 127 407 134 436.2 143.8C465.3 153.7 494.7 166.3 523.8 166.3C553 166.3 582 153.7 611 147.3C640 141 669 141 698 142.8C727 144.7 756 148.3 785.2 148.3C814.3 148.3 843.7 144.7 872.8 135.7C902 126.7 931 112.3 945.5 105.2L960 98L960 53L945.5 52.2C931 51.3 902 49.7 872.8 49.7C843.7 49.7 814.3 51.3 785.2 51.3C756 51.3 727 49.7 698 47.8C669 46 640 44 611 49.3C582 54.7 553 67.3 523.8 71.8C494.7 76.3 465.3 72.7 436.2 70.8C407 69 378 69 349 65.5C320 62 291 55 262 56.8C233 58.7 204 69.3 174.8 67.5C145.7 65.7 116.3 51.3 87.2 49.5C58 47.7 29 58.3 14.5 63.7L0 69Z" fill="#90a8c9"></path><path d="M0 222L14.5 223C29 224 58 226 87.2 235C116.3 244 145.7 260 174.8 266.3C204 272.7 233 269.3 262 255.8C291 242.3 320 218.7 349 220.3C378 222 407 249 436.2 253.5C465.3 258 494.7 240 523.8 240C553 240 582 258 611 255.3C640 252.7 669 229.3 698 221.3C727 213.3 756 220.7 785.2 218C814.3 215.3 843.7 202.7 872.8 201.7C902 200.7 931 211.3 945.5 216.7L960 222L960 96L945.5 103.2C931 110.3 902 124.7 872.8 133.7C843.7 142.7 814.3 146.3 785.2 146.3C756 146.3 727 142.7 698 140.8C669 139 640 139 611 145.3C582 151.7 553 164.3 523.8 164.3C494.7 164.3 465.3 151.7 436.2 141.8C407 132 378 125 349 126.8C320 128.7 291 139.3 262 151C233 162.7 204 175.3 174.8 165.5C145.7 155.7 116.3 123.3 87.2 110.7C58 98 29 105 14.5 108.5L0 112Z" fill="#7b99bf"></path><path d="M0 357L14.5 349.8C29 342.7 58 328.3 87.2 341.8C116.3 355.3 145.7 396.7 174.8 412C204 427.3 233 416.7 262 409.5C291 402.3 320 398.7 349 402.3C378 406 407 417 436.2 408C465.3 399 494.7 370 523.8 370C553 370 582 399 611 409.8C640 420.7 669 413.3 698 413.3C727 413.3 756 420.7 785.2 411.7C814.3 402.7 843.7 377.3 872.8 369.2C902 361 931 370 945.5 374.5L960 379L960 220L945.5 214.7C931 209.3 902 198.7 872.8 199.7C843.7 200.7 814.3 213.3 785.2 216C756 218.7 727 211.3 698 219.3C669 227.3 640 250.7 611 253.3C582 256 553 238 523.8 238C494.7 238 465.3 256 436.2 251.5C407 247 378 220 349 218.3C320 216.7 291 240.3 262 253.8C233 267.3 204 270.7 174.8 264.3C145.7 258 116.3 242 87.2 233C58 224 29 222 14.5 221L0 220Z" fill="#6984a6"></path><path d="M0 541L14.5 541C29 541 58 541 87.2 541C116.3 541 145.7 541 174.8 541C204 541 233 541 262 541C291 541 320 541 349 541C378 541 407 541 436.2 541C465.3 541 494.7 541 523.8 541C553 541 582 541 611 541C640 541 669 541 698 541C727 541 756 541 785.2 541C814.3 541 843.7 541 872.8 541C902 541 931 541 945.5 541L960 541L960 377L945.5 372.5C931 368 902 359 872.8 367.2C843.7 375.3 814.3 400.7 785.2 409.7C756 418.7 727 411.3 698 411.3C669 411.3 640 418.7 611 407.8C582 397 553 368 523.8 368C494.7 368 465.3 397 436.2 406C407 415 378 404 349 400.3C320 396.7 291 400.3 262 407.5C233 414.7 204 425.3 174.8 410C145.7 394.7 116.3 353.3 87.2 339.8C58 326.3 29 340.7 14.5 347.8L0 355Z" fill="#58708e"></path></svg>